# xmcd
#
# Track frame offsets:
#	150
#	16551
#	30963
#	47685
#	63704
#	81809
#	102105
#	117319
#	131706
#	145817
#	161417
#	175302
#	191070
#	212014
#
# Disc length: 3057 seconds
#
# Revision: 1
# Processed by: cddbd v1.5.2PL0 Copyright (c) Steve Scherf et al.
# Submitted via: audiograbber 1.83.01
#
DISCID=b70bef0e
DTITLE=Cody Johnson - Gotta Be Me
DYEAR=2016
DGENRE=Country
TTITLE0=Gotta Be Me
TTITLE1=Grass Stains
TTITLE2=With You I Am
TTITLE3=Half A Song
TTITLE4=The Only One I Know (Cowboy Life)
TTITLE5=Walk Away
TTITLE6=Kiss Goodbye
TTITLE7=Chain Drinkin'
TTITLE8=Wild As You
TTITLE9=I Know My Way Back (Clara's Song)
TTITLE10=Billy's Brother
TTITLE11=Every Scar Has A Story
TTITLE12=I Ain't Going Nowhere Baby
TTITLE13=I Can't Even Walk (Without You Holding My Hand)
EXTD=
EXTT0=
EXTT1=
EXTT2=
EXTT3=
EXTT4=
EXTT5=
EXTT6=
EXTT7=
EXTT8=
EXTT9=
EXTT10=
EXTT11=
EXTT12=
EXTT13=
PLAYORDER=
